<svg width="48" height="48" xmlns="http://www.w3.org/2000/svg" viewBox="0 0 48 48">
    <g fill-rule="evenodd" clip-rule="evenodd">
        <path fill="#611" d="M22.903,3.286c0.679-0.381,1.515-0.381,2.193,0 c3.355,1.883,13.451,7.551,16.807,9.434C42.582,13.1,43,13.804,43,14.566c0,3.766,0,15.101,0,18.867 c0,0.762-0.418,1.466-1.097,1.847c-3.355,1.883-13.451,7.551-16.807,9.434c-0.679,0.381-1.515,0.381-2.193,0 c-3.355-1.883-13.451-7.551-16.807-9.434C5.418,34.899,5,34.196,5,33.434c0-3.766,0-15.101,0-18.867 c0-0.762,0.418-1.466,1.097-1.847C9.451,10.837,19.549,5.169,22.903,3.286z"/>
        <path fill="#c33" d="M5.304,34.404C5.038,34.048,5,33.71,5,33.255 c0-3.744,0-15.014,0-18.759c0-0.758,0.417-1.458,1.094-1.836c3.343-1.872,13.405-7.507,16.748-9.38 c0.677-0.379,1.594-0.371,2.271,0.008c3.343,1.872,13.371,7.459,16.714,9.331c0.27,0.152,0.476,0.335,0.66,0.576L5.304,34.404z"/>
        <path fill="#fff" d="M24,10c7.727,0,14,6.273,14,14s-6.273,14-14,14 s-14-6.273-14-14S16.273,10,24,10z M24,17c3.863,0,7,3.136,7,7c0,3.863-3.137,7-7,7s-7-3.137-7-7C17,20.136,20.136,17,24,17z"/>
        <path fill="#922" d="M42.485,13.205c0.516,0.483,0.506,1.211,0.506,1.784 c0,3.795-0.032,14.589,0.009,18.384c0.004,0.396-0.127,0.813-0.323,1.127L23.593,24L42.485,13.205z"/>
    </g>
    <g stroke-linecap="round" stroke="#000" fill="#000" fill-rule="nonzero" transform="translate(29, 23)">
        <path d="M 1.63 2.64 Q 1.87 1.96 2.15 1.51 Q 2.43 1.06 2.715 0.83 Q 3 0.6 3.26 0.6 Q 3.54 0.6 3.635 0.785 Q 3.73 0.97 3.79 1.13 Q 3.99 1.67 4.27 2.55 Q 4.55 3.43 4.845 4.435 Q 5.14 5.44 5.41 6.37 Q 5.68 7.3 5.86 7.94 Q 6.06 8.66 6.485 9.13 Q 6.91 9.6 7.68 9.6 Q 8.38 9.6 9.06 9.085 Q 9.74 8.57 10.23 7.22 L 9.87 7.05 Q 9.66 7.68 9.38 8.105 Q 9.1 8.53 8.82 8.745 Q 8.54 8.96 8.31 8.96 Q 8.06 8.96 7.915 8.8 Q 7.77 8.64 7.71 8.48 Q 7.45 7.76 7.16 6.86 Q 6.87 5.96 6.585 5.02 Q 6.3 4.08 6.05 3.21 Q 5.8 2.34 5.61 1.67 Q 5.41 0.95 5.03 0.48 Q 4.65 0.01 3.88 0.01 Q 3.02 0.01 2.395 0.565 Q 1.77 1.12 1.27 2.47 L 1.63 2.64 Z M 6.04 4.67 Q 6.6 3.72 6.955 3.13 Q 7.31 2.54 7.57 2.15 Q 7.83 1.76 8.09 1.43 Q 8.26 1.22 8.5 0.99 Q 8.74 0.76 9.04 0.595 Q 9.34 0.43 9.67 0.43 Q 10.25 0.43 10.55 0.685 Q 10.85 0.94 10.85 1.29 L 11.23 1.29 Q 11.23 1.05 11.04 0.84 Q 10.85 0.63 10.595 0.5 Q 10.34 0.37 10.14 0.37 Q 9.63 0.37 9.375 0.685 Q 9.12 1 9.12 1.35 Q 9.12 1.72 9.37 2.065 Q 9.62 2.41 10.16 2.41 Q 10.67 2.41 10.96 2.1 Q 11.25 1.79 11.25 1.29 Q 11.25 0.99 11.1 0.695 Q 10.95 0.4 10.635 0.2 Q 10.32 0 9.83 0 Q 9.2 0 8.685 0.36 Q 8.17 0.72 7.695 1.35 Q 7.22 1.98 6.73 2.78 Q 6.24 3.58 5.65 4.47 L 6.04 4.67 Z M 0.02 8.23 L 0.4 8.23 Q 0.4 8.62 0.7 8.88 Q 1 9.14 1.57 9.14 Q 1.91 9.14 2.205 8.985 Q 2.5 8.83 2.745 8.6 Q 2.99 8.37 3.16 8.17 Q 3.43 7.84 3.685 7.455 Q 3.94 7.07 4.3 6.47 Q 4.66 5.87 5.21 4.93 L 5.6 5.12 Q 5.15 5.85 4.685 6.635 Q 4.22 7.42 3.715 8.09 Q 3.21 8.76 2.66 9.18 Q 2.11 9.6 1.48 9.6 Q 0.96 9.6 0.63 9.38 Q 0.3 9.16 0.15 8.84 Q 0 8.52 0 8.23 Q 0 7.73 0.295 7.405 Q 0.59 7.08 1.12 7.08 Q 1.65 7.08 1.91 7.41 Q 2.17 7.74 2.17 8.12 Q 2.17 8.37 2.06 8.605 Q 1.95 8.84 1.72 8.985 Q 1.49 9.13 1.12 9.13 Q 0.92 9.13 0.66 9.02 Q 0.4 8.91 0.21 8.705 Q 0.02 8.5 0.02 8.23 Z" vector-effect="non-scaling-stroke"/>
    </g>
</svg>